#N canvas 358 36 609 605 10;
#N canvas 531 66 939 634 MainSubPatch 0;
#X obj 1 1 cnv 15 600 37 empty empty SPEECH_RECOGNISER_PERFORMANCE_CALCULATOR
70 18 0 20 -257985 -66577 0;
#N canvas 792 164 807 487 init 0;
#X obj 137 125 s snr_min;
#X obj 138 168 s snr_range;
#X obj 223 124 s voc_min;
#X obj 224 167 s voc_range;
#X obj 137 274 s alg_min;
#X obj 138 317 s alg_range;
#X msg 137 253 -25;
#X msg 138 296 75;
#X msg 22 418 0;
#X obj 79 166 s w1;
#X msg 138 147 75;
#X msg 137 104 -25;
#X msg 79 122 1;
#X obj 79 144 / 21;
#X obj 79 219 / 21;
#X obj 79 295 / 21;
#X obj 79 241 s w2;
#X msg 79 197 4;
#X obj 79 317 s w3;
#X msg 79 273 16;
#X obj 40 374 s n_points;
#X msg 40 348 100;
#X msg 224 188 26;
#X obj 224 209 s voc_sld;
#X obj 138 209 s snr_sld;
#X msg 138 189 25;
#X obj 138 359 s alg_sld;
#X msg 138 338 -12.4;
#X obj 22 446 s slct;
#X obj 480 122 s cnf_min;
#X obj 481 165 s cnf_range;
#X msg 480 101 0;
#X msg 481 144 150;
#X obj 482 207 s cnf_sld;
#X msg 482 186 75;
#X msg 305 103 1;
#X msg 306 146 20;
#X obj 394 123 s prp_min;
#X obj 395 166 s prp_range;
#X obj 395 207 s prp_sld;
#X msg 395 145 1000;
#X msg 395 187 160;
#X obj 566 122 s yer_min;
#X obj 567 165 s yer_range;
#X obj 567 207 s yer_sld;
#X msg 566 101 1986;
#X msg 567 144 100;
#X msg 567 186 2013;
#X obj 21 27 bang;
#X msg 569 252 0;
#X obj 679 37 bang;
#X obj 21 3 inlet;
#X obj 226 276 s nsc_min;
#X obj 227 319 s nsc_range;
#X obj 227 360 s nsc_sld;
#X msg 226 255 0;
#X msg 227 298 12;
#X msg 227 340 0;
#X obj 312 275 s spk_min;
#X obj 313 318 s spk_range;
#X obj 313 360 s spk_sld;
#X msg 312 254 -1;
#X msg 313 339 0;
#X msg 313 297 1;
#X obj 394 275 s tsk_min;
#X obj 395 318 s tsk_range;
#X obj 396 360 s tsk_sld;
#X msg 394 254 -0.9;
#X msg 395 297 0.9;
#X msg 396 339 0;
#X obj 305 124 s snt_min;
#X obj 306 168 s snt_range;
#X obj 307 209 s snt_sld;
#X obj 483 274 s stl_min;
#X obj 484 317 s stl_range;
#X obj 484 358 s stl_sld;
#X msg 483 253 -4.5;
#X msg 484 296 4.5;
#X msg 484 338 0;
#X obj 569 273 s lng_min;
#X obj 570 316 s lng_range;
#X obj 571 358 s lng_sld;
#X msg 570 295 1;
#X obj 655 273 s ann_min;
#X obj 656 316 s ann_range;
#X obj 656 358 s ann_sld;
#X msg 655 252 0;
#X msg 223 103 10;
#X msg 307 188 1;
#X obj 71 445 s accerr_init;
#X msg 656 295 2;
#X msg 224 146 99990;
#X msg 656 337 0.2;
#X msg 571 337 0;
#X msg 394 102 10;
#X connect 6 0 4 0;
#X connect 7 0 5 0;
#X connect 8 0 28 0;
#X connect 8 0 89 0;
#X connect 10 0 1 0;
#X connect 11 0 0 0;
#X connect 12 0 13 0;
#X connect 13 0 9 0;
#X connect 14 0 16 0;
#X connect 15 0 18 0;
#X connect 17 0 14 0;
#X connect 19 0 15 0;
#X connect 21 0 20 0;
#X connect 22 0 23 0;
#X connect 25 0 24 0;
#X connect 27 0 26 0;
#X connect 31 0 29 0;
#X connect 32 0 30 0;
#X connect 34 0 33 0;
#X connect 35 0 70 0;
#X connect 36 0 71 0;
#X connect 40 0 38 0;
#X connect 41 0 39 0;
#X connect 45 0 42 0;
#X connect 46 0 43 0;
#X connect 47 0 44 0;
#X connect 48 0 11 0;
#X connect 48 0 10 0;
#X connect 48 0 87 0;
#X connect 48 0 91 0;
#X connect 48 0 35 0;
#X connect 48 0 36 0;
#X connect 48 0 8 0;
#X connect 48 0 12 0;
#X connect 48 0 17 0;
#X connect 48 0 19 0;
#X connect 48 0 21 0;
#X connect 48 0 22 0;
#X connect 48 0 25 0;
#X connect 48 0 88 0;
#X connect 48 0 41 0;
#X connect 48 0 40 0;
#X connect 48 0 94 0;
#X connect 48 0 47 0;
#X connect 48 0 46 0;
#X connect 48 0 45 0;
#X connect 48 0 34 0;
#X connect 48 0 32 0;
#X connect 48 0 31 0;
#X connect 49 0 79 0;
#X connect 50 0 55 0;
#X connect 50 0 56 0;
#X connect 50 0 61 0;
#X connect 50 0 63 0;
#X connect 50 0 67 0;
#X connect 50 0 68 0;
#X connect 50 0 62 0;
#X connect 50 0 57 0;
#X connect 50 0 69 0;
#X connect 50 0 78 0;
#X connect 50 0 77 0;
#X connect 50 0 76 0;
#X connect 50 0 92 0;
#X connect 50 0 90 0;
#X connect 50 0 86 0;
#X connect 50 0 93 0;
#X connect 50 0 82 0;
#X connect 50 0 49 0;
#X connect 50 0 6 0;
#X connect 50 0 7 0;
#X connect 50 0 27 0;
#X connect 51 0 48 0;
#X connect 51 0 50 0;
#X connect 55 0 52 0;
#X connect 56 0 53 0;
#X connect 57 0 54 0;
#X connect 61 0 58 0;
#X connect 62 0 60 0;
#X connect 63 0 59 0;
#X connect 67 0 64 0;
#X connect 68 0 65 0;
#X connect 69 0 66 0;
#X connect 76 0 73 0;
#X connect 77 0 74 0;
#X connect 78 0 75 0;
#X connect 82 0 80 0;
#X connect 86 0 83 0;
#X connect 87 0 2 0;
#X connect 88 0 72 0;
#X connect 90 0 84 0;
#X connect 91 0 3 0;
#X connect 92 0 85 0;
#X connect 93 0 81 0;
#X connect 94 0 37 0;
#X restore 620 53 pd init;
#X obj 620 8 loadbang;
#X obj 620 32 bng 15 250 50 0 empty reset empty 17 7 0 10 -262144 -1
-1;
#N canvas 913 58 762 822 core-calculation 0;
#X obj 25 9 r alg_prm;
#X floatatom 25 200 5 0 0 0 - - -;
#X text 63 199 <= HENR;
#X obj 97 241 t b f;
#X obj 97 219 r snr_prm;
#X floatatom 25 288 5 0 0 0 - - -;
#X text 65 288 <= SNR;
#X floatatom 25 360 5 0 0 0 - - -;
#X text 63 360 <= NOISE FACTOR;
#X obj 25 337 max 0;
#X obj 25 385 s nf;
#X obj 25 313 expr 22.289619-(sqrt(76.039091-0.863768*$f1)/0.431884)
;
#X obj 25 176 expr $f1+$f2+$f3+$f4+$f5+$f6*($f7-1988);
#X obj 36 29 r nsc_prm;
#X obj 75 49 r spk_prm;
#X obj 113 69 r tsk_prm;
#X obj 152 88 r stl_prm;
#X obj 190 108 r ann_prm;
#X obj 229 128 r yer_prm;
#X obj 25 264 expr $f1-(25-$f2);
#X obj 36 50 t b f;
#X obj 75 70 t b f;
#X obj 113 89 t b f;
#X obj 152 108 t b f;
#X obj 190 128 t b f;
#X obj 229 148 t b f;
#X obj 426 75 expr $f1*($f2-1.0)*exp(-$f3*$f4*2.0);
#X obj 470 41 t b f;
#X obj 541 43 t b f;
#X obj 612 43 t b f;
#X obj 426 20 r w0;
#X obj 470 20 r nw;
#X obj 541 22 r c0;
#X obj 612 23 r nf;
#X obj 426 212 +;
#X obj 440 186 t b f;
#X obj 440 157 expr $f1*($f2-1.0)*exp(-$f3*$f4*2.0);
#X obj 484 123 t b f;
#X obj 555 125 t b f;
#X obj 626 125 t b f;
#X obj 484 102 r nw;
#X obj 626 105 r nf;
#X obj 555 104 r c1;
#X obj 440 102 r w1a;
#X obj 426 350 +;
#X obj 440 324 t b f;
#X obj 440 295 expr $f1*($f2-1.0)*exp(-$f3*$f4*2.0);
#X obj 484 261 t b f;
#X obj 555 263 t b f;
#X obj 626 263 t b f;
#X obj 484 240 r nw;
#X obj 626 243 r nf;
#X obj 440 240 r w2;
#X obj 555 242 r c2;
#X obj 426 490 +;
#X obj 440 464 t b f;
#X obj 440 435 expr $f1*($f2-1.0)*exp(-$f3*$f4*2.0);
#X obj 484 401 t b f;
#X obj 555 403 t b f;
#X obj 626 403 t b f;
#X obj 484 380 r nw;
#X obj 626 383 r nf;
#X obj 440 380 r w3;
#X obj 555 382 r c3;
#X floatatom 426 561 5 0 0 0 - - -;
#X obj 426 798 s rr;
#X obj 26 594 r cnf_prm;
#X obj 26 617 / 100;
#X obj 26 665 s c0;
#X obj 26 642 expr 0.06+(2.5-0.06)*$f1;
#X obj 63 665 expr 0.51834+(4.04816-0.51834)*$f1;
#X obj 102 688 expr 1.55893+(5.75464-1.55893)*$f1;
#X obj 141 711 expr 5.14364+(10.22176-5.14364)*$f1;
#X obj 63 688 s c1;
#X obj 102 711 s c2;
#X obj 141 734 s c3;
#X obj 145 560 r nw;
#X obj 145 584 expr 2.0/(($f1*$f1)-$f1);
#X obj 145 609 s w0;
#X obj 317 553 r w1;
#X obj 353 576 t b f;
#X obj 353 602 -;
#X obj 353 553 r w0;
#X obj 353 625 s w1a;
#X obj 426 774 * 100;
#X obj 38 227 s henr;
#X obj 426 632 pow;
#X obj 436 608 t b f;
#X floatatom 426 655 5 0 0 0 - - -;
#X text 464 561 <= WORD RECOGNITION RATE (0-1);
#X text 465 655 <= UTTERANCE RECOGNITION RATE (0-1);
#X obj 436 583 r snt_prm;
#X obj 459 677 r accerr;
#X obj 529 676 swap 1;
#X obj 529 699 -;
#X floatatom 529 722 5 0 0 0 - - -;
#X text 564 721 <= UTTERANCE ERROR RATE (1-0);
#X obj 529 744 spigot;
#X obj 459 701 swap 1;
#X obj 459 724 -;
#X obj 426 747 spigot;
#X obj 426 536 expr 1.0/($f1+1.0);
#X obj 29 424 r lng_prm;
#X obj 90 447 t b f;
#X obj 179 423 r prp_prm;
#X obj 179 447 t b f;
#X obj 90 423 r voc_prm;
#X obj 29 517 s nw;
#X obj 29 472 expr if($f2<$f3 \, $f2 \, ((1.0-$f1))*$f2+($f1*$f3))
;
#X floatatom 29 495 5 0 0 0 - - -;
#X text 70 494 <= effective vocabulary size;
#X obj 531 791 s plot;
#X obj 426 513 max 0;
#X text 466 513 <= trap any negative values;
#X connect 0 0 12 0;
#X connect 1 0 19 0;
#X connect 1 0 85 0;
#X connect 3 0 19 0;
#X connect 3 1 19 1;
#X connect 4 0 3 0;
#X connect 5 0 11 0;
#X connect 7 0 10 0;
#X connect 9 0 7 0;
#X connect 11 0 9 0;
#X connect 12 0 1 0;
#X connect 13 0 20 0;
#X connect 14 0 21 0;
#X connect 15 0 22 0;
#X connect 16 0 23 0;
#X connect 17 0 24 0;
#X connect 18 0 25 0;
#X connect 19 0 5 0;
#X connect 20 0 12 0;
#X connect 20 1 12 1;
#X connect 21 0 12 0;
#X connect 21 1 12 2;
#X connect 22 0 12 0;
#X connect 22 1 12 3;
#X connect 23 0 12 0;
#X connect 23 1 12 4;
#X connect 24 0 12 0;
#X connect 24 1 12 5;
#X connect 25 0 12 0;
#X connect 25 1 12 6;
#X connect 26 0 34 0;
#X connect 27 0 26 0;
#X connect 27 1 26 1;
#X connect 28 0 26 0;
#X connect 28 1 26 2;
#X connect 29 0 26 0;
#X connect 29 1 26 3;
#X connect 30 0 26 0;
#X connect 31 0 27 0;
#X connect 32 0 28 0;
#X connect 33 0 29 0;
#X connect 34 0 44 0;
#X connect 35 0 34 0;
#X connect 35 1 34 1;
#X connect 36 0 35 0;
#X connect 37 0 36 0;
#X connect 37 1 36 1;
#X connect 38 0 36 0;
#X connect 38 1 36 2;
#X connect 39 0 36 0;
#X connect 39 1 36 3;
#X connect 40 0 37 0;
#X connect 41 0 39 0;
#X connect 42 0 38 0;
#X connect 43 0 36 0;
#X connect 44 0 54 0;
#X connect 45 0 44 0;
#X connect 45 1 44 1;
#X connect 46 0 45 0;
#X connect 47 0 46 0;
#X connect 47 1 46 1;
#X connect 48 0 46 0;
#X connect 48 1 46 2;
#X connect 49 0 46 0;
#X connect 49 1 46 3;
#X connect 50 0 47 0;
#X connect 51 0 49 0;
#X connect 52 0 46 0;
#X connect 53 0 48 0;
#X connect 54 0 112 0;
#X connect 55 0 54 0;
#X connect 55 1 54 1;
#X connect 56 0 55 0;
#X connect 57 0 56 0;
#X connect 57 1 56 1;
#X connect 58 0 56 0;
#X connect 58 1 56 2;
#X connect 59 0 56 0;
#X connect 59 1 56 3;
#X connect 60 0 57 0;
#X connect 61 0 59 0;
#X connect 62 0 56 0;
#X connect 63 0 58 0;
#X connect 64 0 86 0;
#X connect 66 0 67 0;
#X connect 67 0 69 0;
#X connect 67 0 70 0;
#X connect 67 0 71 0;
#X connect 67 0 72 0;
#X connect 69 0 68 0;
#X connect 70 0 73 0;
#X connect 71 0 74 0;
#X connect 72 0 75 0;
#X connect 76 0 77 0;
#X connect 77 0 78 0;
#X connect 79 0 81 0;
#X connect 80 0 81 0;
#X connect 80 1 81 1;
#X connect 81 0 83 0;
#X connect 82 0 80 0;
#X connect 84 0 65 0;
#X connect 86 0 88 0;
#X connect 87 0 86 0;
#X connect 87 1 86 1;
#X connect 88 0 93 0;
#X connect 88 0 100 0;
#X connect 91 0 87 0;
#X connect 92 0 97 1;
#X connect 92 0 98 0;
#X connect 92 0 111 0;
#X connect 93 0 94 0;
#X connect 93 1 94 1;
#X connect 94 0 95 0;
#X connect 95 0 97 0;
#X connect 97 0 84 0;
#X connect 98 0 99 0;
#X connect 98 1 99 1;
#X connect 99 0 100 1;
#X connect 100 0 84 0;
#X connect 101 0 64 0;
#X connect 102 0 108 0;
#X connect 103 0 108 0;
#X connect 103 1 108 1;
#X connect 104 0 105 0;
#X connect 105 0 108 0;
#X connect 105 1 108 2;
#X connect 106 0 103 0;
#X connect 108 0 109 0;
#X connect 109 0 107 0;
#X connect 112 0 101 0;
#X restore 620 77 pd core-calculation;
#N canvas 802 50 1053 809 graph 0;
#X floatatom 93 -178 5 0 0 0 - - -;
#X msg 93 -231 0;
#X obj 93 -205 int;
#X obj 122 -205 + 1;
#X msg 124 -260 stop;
#X obj 93 -291 bng 15 250 50 0 empty empty empty 17 7 0 10 -262144
-1 -1;
#X obj 153 -205 select;
#X obj 186 -259 r n_points;
#X msg 214 -233 \; graph resize \$1;
#X obj 12 -141 tabwrite graph;
#X obj 12 -170 r rr;
#X text 116 -294 <= plot graph;
#X msg 273 -49 set Signal_to_Noise_Ratio;
#X obj 273 256 s grph-head;
#X obj 13 -96 r grph;
#X floatatom 13 -73 5 0 0 0 - - -;
#X obj 13 -25 gate 13 0 0 0 0 0 0 0 0 0 0 0 0;
#X obj 74 168 s cnf_grph;
#X obj 13 248 s snr_grph;
#X obj 28 228 s voc_grph;
#X obj 13 -49 + 1;
#X msg 336 31 set Confusability;
#X obj 273 -72 route 1 2 3 4 5 6 7 8 9 10 11 12 13;
#X msg 288 -29 set Vocabulary_Size;
#X obj 186 -232 + 1;
#X obj 180 -157 bng 15 250 50 0 empty empty empty 17 7 0 10 -262144
-1 -1;
#X text 199 -159 <= reset parameters from sliders;
#X obj 242 -132 s voc_sld;
#X obj 180 -131 s snr_sld;
#X msg 304 -9 set Sentence_Length;
#X msg 320 11 set Perplexity;
#X msg 352 51 set Year;
#X msg 368 71 set Basic_Algorithm;
#X msg 384 91 set Noise_Compensation;
#X msg 399 111 set Speaker_Dependence;
#X msg 416 131 set Task_Dependence;
#X msg 432 151 set Speaking_Style;
#X msg 448 171 set Language_Model;
#X msg 464 191 set Annual_Improvement;
#X obj 43 208 s snt_grph;
#X obj 58 188 s prp_grph;
#X obj 89 148 s yer_grph;
#X obj 104 128 s alg_grph;
#X obj 119 108 s nsc_grph;
#X obj 135 88 s spk_grph;
#X obj 150 68 s tsk_grph;
#X obj 165 48 s stl_grph;
#X obj 180 28 s lng_grph;
#X obj 196 8 s ann_grph;
#X obj 163 334 expr ($f1*$f2)/100+$f3;
#X obj 169 310 r voc_range;
#X obj 240 310 r voc_min;
#X obj 163 288 r voc_grph;
#X obj 11 334 expr ($f1*$f2)/100+$f3;
#X obj 11 288 r snr_grph;
#X obj 17 310 r snr_range;
#X obj 89 310 r snr_min;
#X obj 790 331 expr ($f1*$f2)/100+$f3;
#X obj 163 355 s voc_prm;
#X obj 11 355 s snr_prm;
#X obj 10 440 expr ($f1*$f2)/100+$f3;
#X obj 10 394 r alg_grph;
#X obj 16 416 r alg_range;
#X obj 88 416 r alg_min;
#X obj 10 461 s alg_prm;
#X obj 474 334 expr ($f1*$f2)/100+$f3;
#X obj 316 334 expr ($f1*$f2)/100+$f3;
#X obj 635 334 expr ($f1*$f2)/100+$f3;
#X obj 635 288 r cnf_grph;
#X obj 641 310 r cnf_range;
#X obj 713 310 r cnf_min;
#X obj 635 355 s cnf_prm;
#X obj 316 288 r snt_grph;
#X obj 322 310 r snt_range;
#X obj 394 310 r snt_min;
#X obj 316 355 s snt_prm;
#X obj 474 288 r prp_grph;
#X obj 480 310 r prp_range;
#X obj 552 310 r prp_min;
#X obj 474 356 s prp_prm;
#X obj 790 285 r yer_grph;
#X obj 796 307 r yer_range;
#X obj 867 307 r yer_min;
#X obj 790 352 s yer_prm;
#X obj 152 439 expr ($f1*$f2)/100+$f3;
#X obj 294 438 expr ($f1*$f2)/100+$f3;
#X obj 436 437 expr ($f1*$f2)/100+$f3;
#X obj 578 435 expr ($f1*$f2)/100+$f3;
#X obj 720 434 expr ($f1*$f2)/100+$f3;
#X obj 862 433 expr ($f1*$f2)/100+$f3;
#X obj 152 393 r nsc_grph;
#X obj 158 415 r nsc_range;
#X obj 230 415 r nsc_min;
#X obj 152 460 s nsc_prm;
#X obj 294 392 r spk_grph;
#X obj 300 414 r spk_range;
#X obj 372 414 r spk_min;
#X obj 294 459 s spk_prm;
#X obj 436 391 r tsk_grph;
#X obj 442 413 r tsk_range;
#X obj 514 413 r tsk_min;
#X obj 436 458 s tsk_prm;
#X obj 578 389 r stl_grph;
#X obj 584 411 r stl_range;
#X obj 656 411 r stl_min;
#X obj 578 456 s stl_prm;
#X obj 720 388 r lng_grph;
#X obj 726 410 r lng_range;
#X obj 798 410 r lng_min;
#X obj 720 455 s lng_prm;
#X obj 862 388 r ann_grph;
#X obj 868 409 r ann_range;
#X obj 940 409 r ann_min;
#X obj 862 454 s ann_prm;
#X obj 304 -132 s snt_sld;
#X obj 368 -131 s prp_sld;
#X obj 430 -132 s cnf_sld;
#X obj 492 -132 s yer_sld;
#X obj 198 -107 s alg_sld;
#X obj 261 -108 s nsc_sld;
#X obj 324 -109 s spk_sld;
#X obj 387 -110 s tsk_sld;
#X obj 448 -112 s stl_sld;
#X obj 511 -112 s lng_sld;
#X obj 574 -112 s ann_sld;
#X obj 439 -283 r plot;
#X obj 439 -236 spigot;
#X msg 472 -260 0;
#X obj 439 -213 t b b;
#X msg 505 -260 1;
#X obj 505 -283 loadbang;
#X obj 722 88 bng 15 250 50 0 empty empty empty 17 7 0 10 -262144 -1
-1;
#X obj 722 162 s plot;
#X text 768 161 <= redraw if a parameter changes;
#X obj 734 -205 r voc_prm;
#X obj 722 -228 r snr_prm;
#X obj 745 -183 r snt_prm;
#X obj 757 -160 r prp_prm;
#X obj 769 -138 r cnf_prm;
#X obj 781 -115 r yer_prm;
#X obj 792 -93 r alg_prm;
#X obj 804 -70 r nsc_prm;
#X obj 816 -48 r spk_prm;
#X obj 828 -25 r tsk_prm;
#X obj 839 -3 r stl_prm;
#X obj 851 20 r lng_prm;
#X obj 863 42 r ann_prm;
#X obj 153 -181 t b b;
#X text 52 -73 <= select which parameter to scan;
#X text 352 482 ^= scan the appropriate parameters =^;
#X text 484 -237 <= disable while scanning;
#X obj 722 113 spigot;
#X msg 790 90 0;
#X obj 722 136 t b b;
#X text 768 112 <= disable after change;
#X obj 124 -232 metro 1;
#X connect 0 0 16 1;
#X connect 0 0 9 1;
#X connect 1 0 2 0;
#X connect 2 0 0 0;
#X connect 2 0 3 0;
#X connect 3 0 2 1;
#X connect 3 0 6 0;
#X connect 4 0 155 0;
#X connect 5 0 1 0;
#X connect 5 0 155 0;
#X connect 6 0 4 0;
#X connect 6 0 147 0;
#X connect 7 0 24 0;
#X connect 7 0 8 0;
#X connect 10 0 9 0;
#X connect 12 0 13 0;
#X connect 14 0 15 0;
#X connect 14 0 126 0;
#X connect 15 0 20 0;
#X connect 16 0 18 0;
#X connect 16 1 19 0;
#X connect 16 2 39 0;
#X connect 16 3 40 0;
#X connect 16 4 17 0;
#X connect 16 5 41 0;
#X connect 16 6 42 0;
#X connect 16 7 43 0;
#X connect 16 8 44 0;
#X connect 16 9 45 0;
#X connect 16 10 46 0;
#X connect 16 11 47 0;
#X connect 16 12 48 0;
#X connect 20 0 16 0;
#X connect 20 0 22 0;
#X connect 21 0 13 0;
#X connect 22 0 12 0;
#X connect 22 1 23 0;
#X connect 22 2 29 0;
#X connect 22 3 30 0;
#X connect 22 4 21 0;
#X connect 22 5 31 0;
#X connect 22 6 32 0;
#X connect 22 7 33 0;
#X connect 22 8 34 0;
#X connect 22 9 35 0;
#X connect 22 10 36 0;
#X connect 22 11 37 0;
#X connect 22 12 38 0;
#X connect 23 0 13 0;
#X connect 24 0 6 1;
#X connect 25 0 27 0;
#X connect 25 0 28 0;
#X connect 25 0 114 0;
#X connect 25 0 115 0;
#X connect 25 0 116 0;
#X connect 25 0 117 0;
#X connect 25 0 118 0;
#X connect 25 0 119 0;
#X connect 25 0 120 0;
#X connect 25 0 121 0;
#X connect 25 0 122 0;
#X connect 25 0 123 0;
#X connect 25 0 124 0;
#X connect 29 0 13 0;
#X connect 30 0 13 0;
#X connect 31 0 13 0;
#X connect 32 0 13 0;
#X connect 33 0 13 0;
#X connect 34 0 13 0;
#X connect 35 0 13 0;
#X connect 36 0 13 0;
#X connect 37 0 13 0;
#X connect 38 0 13 0;
#X connect 49 0 58 0;
#X connect 50 0 49 1;
#X connect 51 0 49 2;
#X connect 52 0 49 0;
#X connect 53 0 59 0;
#X connect 54 0 53 0;
#X connect 55 0 53 1;
#X connect 56 0 53 2;
#X connect 57 0 83 0;
#X connect 60 0 64 0;
#X connect 61 0 60 0;
#X connect 62 0 60 1;
#X connect 63 0 60 2;
#X connect 65 0 79 0;
#X connect 66 0 75 0;
#X connect 67 0 71 0;
#X connect 68 0 67 0;
#X connect 69 0 67 1;
#X connect 70 0 67 2;
#X connect 72 0 66 0;
#X connect 73 0 66 1;
#X connect 74 0 66 2;
#X connect 76 0 65 0;
#X connect 77 0 65 1;
#X connect 78 0 65 2;
#X connect 80 0 57 0;
#X connect 81 0 57 1;
#X connect 82 0 57 2;
#X connect 84 0 93 0;
#X connect 85 0 97 0;
#X connect 86 0 101 0;
#X connect 87 0 105 0;
#X connect 88 0 109 0;
#X connect 89 0 113 0;
#X connect 90 0 84 0;
#X connect 91 0 84 1;
#X connect 92 0 84 2;
#X connect 94 0 85 0;
#X connect 95 0 85 1;
#X connect 96 0 85 2;
#X connect 98 0 86 0;
#X connect 99 0 86 1;
#X connect 100 0 86 2;
#X connect 102 0 87 0;
#X connect 103 0 87 1;
#X connect 104 0 87 2;
#X connect 106 0 88 0;
#X connect 107 0 88 1;
#X connect 108 0 88 2;
#X connect 110 0 89 0;
#X connect 111 0 89 1;
#X connect 112 0 89 2;
#X connect 125 0 126 0;
#X connect 126 0 128 0;
#X connect 127 0 126 1;
#X connect 128 0 127 0;
#X connect 128 1 5 0;
#X connect 129 0 126 1;
#X connect 129 0 151 1;
#X connect 130 0 129 0;
#X connect 131 0 151 0;
#X connect 134 0 131 0;
#X connect 135 0 131 0;
#X connect 136 0 131 0;
#X connect 137 0 131 0;
#X connect 138 0 131 0;
#X connect 139 0 131 0;
#X connect 140 0 131 0;
#X connect 141 0 131 0;
#X connect 142 0 131 0;
#X connect 143 0 131 0;
#X connect 144 0 131 0;
#X connect 145 0 131 0;
#X connect 146 0 131 0;
#X connect 147 0 129 0;
#X connect 147 1 25 0;
#X connect 151 0 153 0;
#X connect 152 0 151 1;
#X connect 153 0 132 0;
#X connect 153 1 152 0;
#X connect 155 0 2 0;
#X restore 620 101 pd graph;
#X obj 615 170 nbx 5 30 -1e+037 1e+037 0 0 empty henr dB_HENR 160 15
0 30 -262144 -1 -1 -7.39756 256;
#N canvas 633 382 996 522 display 0;
#X obj 10 10 r spk_prm;
#X floatatom 10 34 5 0 0 0 - - -;
#X obj 10 201 s spk_disp;
#X msg 136 159 set speaker_dependent;
#X msg 73 133 set speaker_adaptive;
#X msg 10 106 set speaker_independent;
#X obj 73 82 moses -0.33;
#X obj 10 58 moses -0.66;
#X floatatom 282 34 5 0 0 0 - - -;
#X obj 345 82 moses -0.33;
#X obj 282 58 moses -0.66;
#X obj 282 201 s tsk_disp;
#X obj 282 10 r tsk_prm;
#X msg 282 106 set task_independent;
#X msg 345 133 set task_adaptive;
#X msg 408 159 set task_dependent;
#X floatatom 538 34 5 0 0 0 - - -;
#X obj 538 10 r stl_prm;
#X obj 538 201 s stl_disp;
#X msg 583 133 set connected_words;
#X msg 538 106 set spontaneous_speech;
#X msg 640 159 set isolated_words;
#X obj 538 58 moses -3;
#X obj 583 82 moses -1.5;
#X floatatom 782 37 5 0 0 0 - - -;
#X obj 782 13 r nsc_prm;
#X obj 782 204 s nsc_disp;
#X msg 821 136 set masking;
#X obj 782 61 moses 4;
#X obj 821 85 moses 8;
#X msg 782 109 set none;
#X msg 860 162 set decomposition;
#X floatatom 12 258 5 0 0 0 - - -;
#X obj 12 234 r cnf_prm;
#X obj 12 490 s cnf_disp;
#X obj 12 282 moses 30;
#X msg 12 330 set very_high;
#X obj 57 306 moses 60;
#X msg 57 357 set high;
#X obj 102 332 moses 90;
#X msg 102 383 set average;
#X obj 147 359 moses 120;
#X msg 147 410 set low;
#X msg 198 439 set very_low;
#X floatatom 324 269 5 0 0 0 - - -;
#X msg 324 341 set none;
#X obj 324 245 r lng_prm;
#X obj 324 436 s lng_disp;
#X obj 324 293 moses 0.33;
#X obj 381 317 moses 0.66;
#X msg 438 394 set full;
#X msg 381 368 set partial;
#X obj 559 291 r voc_prm;
#X obj 559 316 int;
#X obj 559 342 s voc_int;
#X obj 631 316 int;
#X obj 705 316 int;
#X obj 631 291 r snt_prm;
#X obj 631 342 s snt_int;
#X obj 705 291 r prp_prm;
#X obj 705 342 s prp_int;
#X obj 774 316 int;
#X obj 774 291 r yer_prm;
#X obj 774 342 s yer_int;
#X connect 0 0 1 0;
#X connect 1 0 7 0;
#X connect 3 0 2 0;
#X connect 4 0 2 0;
#X connect 5 0 2 0;
#X connect 6 0 4 0;
#X connect 6 1 3 0;
#X connect 7 0 5 0;
#X connect 7 1 6 0;
#X connect 8 0 10 0;
#X connect 9 0 14 0;
#X connect 9 1 15 0;
#X connect 10 0 13 0;
#X connect 10 1 9 0;
#X connect 12 0 8 0;
#X connect 13 0 11 0;
#X connect 14 0 11 0;
#X connect 15 0 11 0;
#X connect 16 0 22 0;
#X connect 17 0 16 0;
#X connect 19 0 18 0;
#X connect 20 0 18 0;
#X connect 21 0 18 0;
#X connect 22 0 20 0;
#X connect 22 1 23 0;
#X connect 23 0 19 0;
#X connect 23 1 21 0;
#X connect 24 0 28 0;
#X connect 25 0 24 0;
#X connect 27 0 26 0;
#X connect 28 0 30 0;
#X connect 28 1 29 0;
#X connect 29 0 27 0;
#X connect 29 1 31 0;
#X connect 30 0 26 0;
#X connect 31 0 26 0;
#X connect 32 0 35 0;
#X connect 33 0 32 0;
#X connect 35 0 36 0;
#X connect 35 1 37 0;
#X connect 36 0 34 0;
#X connect 37 0 38 0;
#X connect 37 1 39 0;
#X connect 38 0 34 0;
#X connect 39 0 40 0;
#X connect 39 1 41 0;
#X connect 40 0 34 0;
#X connect 41 0 42 0;
#X connect 41 1 43 0;
#X connect 42 0 34 0;
#X connect 43 0 34 0;
#X connect 44 0 48 0;
#X connect 45 0 47 0;
#X connect 46 0 44 0;
#X connect 48 0 45 0;
#X connect 48 1 49 0;
#X connect 49 0 51 0;
#X connect 49 1 50 0;
#X connect 50 0 47 0;
#X connect 51 0 47 0;
#X connect 52 0 53 0;
#X connect 53 0 54 0;
#X connect 55 0 58 0;
#X connect 56 0 60 0;
#X connect 57 0 55 0;
#X connect 59 0 56 0;
#X connect 61 0 63 0;
#X connect 62 0 61 0;
#X restore 620 125 pd display;
#X obj 1 339 cnv 15 300 260 empty empty Technology_Factors 15 15 0
14 -204800 -66577 0;
#X obj 301 339 cnv 15 300 260 empty empty Application_Factors 15 15
0 14 -261234 -66577 0;
#X obj 320 415 hsl 128 15 10 100000 1 0 voc_prm voc_sld Vocabulary_Size
-2 -8 0 10 -262144 -1 -1 1318 1;
#X obj 320 385 hsl 128 15 -25 50 0 0 snr_prm snr_sld Signal_to_Noise_Ratio
-2 -8 0 10 -262144 -1 -1 8467 1;
#X obj 320 445 hsl 128 15 1 20 0 0 snt_prm snt_sld Utterance_Length
-2 -8 0 10 -262144 -1 -1 0 1;
#X floatatom 460 414 6 0 0 0 - voc_int -;
#X floatatom 460 384 6 0 0 0 - snr_prm -;
#X floatatom 460 444 6 0 0 0 - snt_int -;
#X obj 320 537 hsl 128 15 1986 2086 1 0 yer_prm yer_sld Year -2 -8
0 10 -262144 -1 -1 3491 1;
#X obj 320 476 hsl 128 15 10 1000 1 0 prp_prm prp_sld Perplexity -2
-8 0 10 -262144 -1 -1 1800 1;
#X obj 320 507 hsl 128 15 0 150 0 0 cnf_prm cnf_sld Confusability -2
-8 0 10 -262144 -1 -1 6350 1;
#X floatatom 460 536 6 0 0 0 - yer_int -;
#X floatatom 460 475 6 0 0 0 - prp_int -;
#X text 510 384 dB;
#X text 509 414 words;
#X text 509 443 words;
#X symbolatom 460 507 20 0 0 0 - cnf_disp -;
#X obj 19 447 hsl 128 15 -1 0 0 0 spk_prm spk_sld Speaker_Dependence
-2 -8 0 10 -262144 -1 -1 12700 1;
#X obj 19 417 hsl 128 15 0 12 0 0 nsc_prm nsc_sld Noise_Compensation
-2 -8 0 10 -262144 -1 -1 0 1;
#X obj 19 477 hsl 128 15 -0.9 0 0 0 tsk_prm tsk_sld Task_Dependence
-2 -8 0 10 -262144 -1 -1 12700 1;
#X obj 19 538 hsl 128 15 0 1 0 0 lng_prm lng_sld Language_Model -2
-8 0 10 -262144 -1 -1 0 1;
#X obj 19 508 hsl 128 15 -4.5 0 0 0 stl_prm stl_sld Speaking_Style
-2 -8 0 10 -262144 -1 -1 12700 1;
#X obj 19 568 hsl 128 15 0 2 0 0 ann_prm ann_sld Annual_Improvement
-2 -8 0 10 -262144 -1 -1 1270 1;
#X floatatom 159 567 6 0 0 0 - ann_prm -;
#X obj 19 387 hsl 128 15 -25 50 0 0 alg_prm alg_sld Basic_Algorithm
-2 -8 0 10 -262144 -1 -1 2134 1;
#X floatatom 159 386 6 0 0 0 - alg_prm -;
#X symbolatom 158 447 20 0 0 0 - spk_disp -;
#X symbolatom 158 476 20 0 0 0 - tsk_disp -;
#X symbolatom 158 506 20 0 0 0 - stl_disp -;
#X symbolatom 158 417 20 0 0 0 - nsc_disp -;
#X symbolatom 159 537 20 0 0 0 - lng_disp -;
#X text 208 386 dB HENR;
#X text 205 567 dB HENR / year;
#X obj 1 39 cnv 15 600 299 empty empty empty 5 12 0 14 -204786 -66577
0;
#X obj 572 306 bng 15 250 50 0 reset empty empty 17 7 0 10 -262144
-1 -1;
#N canvas 0 0 450 300 (subpatch) 0;
#X array graph 100 float 0;
#X coords 0 100 99 0 200 195 1;
#X restore 302 56 graph;
#X symbolatom 341 263 22 0 0 0 - grph-head -;
#X obj 189 57 vradio 15 1 0 13 grph slct empty 0 -8 0 10 -262144 -1
-1 0;
#X text 53 54 Signal to Noise Ratio:;
#X text 89 69 Vocabulary Size:;
#X text 119 99 Perplexity:;
#X text 101 114 Confusability:;
#X text 155 130 Year:;
#X text 89 144 Basic Algorithm:;
#X text 71 159 Noise Compensation:;
#X text 71 175 Speaker Dependence:;
#X text 89 190 Task Dependence:;
#X text 95 205 Speaking Style:;
#X text 95 220 Language Model:;
#X text 71 235 Annual Improvement:;
#X obj 189 274 vradio 15 1 0 2 accerr accerr_init empty 0 -8 0 10 -262144
-1 -1 0;
#X text 130 271 Accuracy:;
#X text 118 286 Error Rate:;
#X obj 326 289 nbx 5 30 -1e+037 1e+037 0 0 empty rr % 160 15 0 30 -262144
-1 -1 99.8969 256;
#X text 83 84 Utterance Length:;
#X text 288 140 %;
#X text 563 320 reset;
#X connect 2 0 3 0;
#X connect 3 0 1 0;
#X coords 0 -1 1 1 602 600 2 0 0;
#X restore -62 -230 pd MainSubPatch;
